<svg width="237" height="119" viewBox="0 0 237 119" fill="none" xmlns="http://www.w3.org/2000/svg">
<path d="M202.135 105.78C203.19 117.13 203.19 117.13 192.216 117.13C157.244 117.13 122.272 117.055 87.3015 117.231C83.2136 117.252 81.37 116.059 80.377 112.108C79.17 107.306 78.5347 100.874 75.2375 98.4982C71.9123 96.1021 65.6294 97.7693 60.6418 97.7319C54.6445 97.687 48.6403 97.8857 42.6515 97.6545C39.5717 97.5356 38.186 98.6205 37.4678 101.579C36.4487 105.778 35.1409 109.928 33.6096 113.968C33.1311 115.231 31.5534 116.937 30.4425 116.964C20.8261 117.201 11.2013 117.101 0.877197 117.101C1.53273 114.931 1.91563 113.393 2.45644 111.913C15.4276 76.413 28.4742 40.9404 41.3149 5.39338C42.6733 1.63285 44.4261 0.208028 48.4644 0.468343C54.4372 0.85336 60.4665 0.808827 66.4461 0.480672C70.2402 0.272458 71.9521 1.56474 73.2346 5.17054C80.0394 24.3029 87.1354 43.3317 94.1471 62.3903C94.7552 64.0431 95.4837 65.6516 97.0711 67.1289C97.0711 45.1272 97.0711 23.1255 97.0711 0.587483C106.589 0.587483 115.539 0.565473 124.488 0.598287C128.082 0.61147 127.11 3.42777 127.116 5.35878C127.177 24.5178 127.154 43.6771 127.154 62.8363C127.155 72.4799 127.154 82.1236 127.154 92.2097C142.153 92.2097 156.847 92.2097 171.908 92.2097C171.908 69.9601 171.908 47.7425 171.908 24.9688C160.99 24.9688 150.229 24.9688 139.077 24.9688C139.077 16.6975 139.077 8.97072 139.077 0.903027C171.504 0.903027 203.907 0.903027 236.689 0.903027C236.689 8.5859 236.689 16.3084 236.689 24.8745C229.464 24.8745 222.215 24.8745 214.966 24.8745C202.422 24.8745 202.432 24.8745 202.42 37.2788C202.4 57.6033 202.365 77.9277 202.201 99.0772C202.089 101.861 202.112 103.82 202.135 105.78ZM50.9211 57.9004C49.3838 62.9345 47.8466 67.9686 46.266 73.1444C53.8573 73.1444 60.8937 73.1444 68.5361 73.1444C64.8524 61.4156 61.3342 50.2137 57.816 39.0118C57.4868 39.0444 57.1577 39.077 56.8285 39.1096C54.9251 45.1144 53.0218 51.1191 50.9211 57.9004Z" fill="#FEFDFE"/>
<path d="M202.478 106.11C202.112 103.82 202.089 101.861 202.095 99.5113C203.118 98.1136 204.346 97.2501 205.07 96.0763C209.285 89.2435 218.406 86.6723 226.179 90.2429C233.082 93.4145 236.377 100.968 233.791 108.167C231.591 114.289 226.888 117.401 220.578 117.957C213.926 118.544 208.504 116.248 204.952 110.329C204.192 109.063 203.529 107.739 202.478 106.11Z" fill="#FDFAFD"/>
</svg>

